<svg width="244" height="254" viewBox="0 0 244 254" fill="none" xmlns="http://www.w3.org/2000/svg">
<path d="M0.00564458 80.0685C-0.121611 77.3336 1.8791 75.2412 4.52212 74.8432C7.19326 74.4415 9.9491 75.1882 12.5519 75.719C15.2305 76.2658 17.893 76.8884 20.5355 77.5852C31.1287 80.3792 41.3748 84.4097 51.093 89.4547C60.7538 94.4688 69.8783 100.543 78.229 107.52C87.106 114.939 94.8262 123.446 102.194 132.335C109.792 141.501 117.156 150.923 125.75 159.199C127.559 160.939 129.432 162.61 131.351 164.228C131.064 163.416 130.798 162.595 130.563 161.766C130.331 161.68 130.113 161.585 129.934 161.504C129.159 161.152 128.469 160.606 127.898 159.976C126.747 158.705 126.068 157.051 125.989 155.342C125.952 154.546 126.097 153.722 126.384 152.952C126.396 152.814 126.418 152.68 126.449 152.548C123.403 148.354 120.605 144.017 117.85 139.622C114.753 134.681 112.011 129.52 109.57 124.223C108.87 122.703 108.25 121.142 107.618 119.593C107.278 118.76 106.914 117.939 106.55 117.118C106.222 116.641 105.999 116.121 105.877 115.567C105.796 115.375 105.708 115.187 105.629 114.995C105.488 114.655 105.578 114.322 105.793 114.114C105.943 113.337 106.913 113.26 107.343 113.879C107.629 114.29 107.88 114.645 108.05 115.064C108.464 115.732 108.597 116.574 108.305 117.346L108.221 117.467C109.974 121.765 111.962 125.961 114.054 130.112C116.63 135.225 119.368 140.268 122.483 145.073C123.909 147.275 125.387 149.446 126.898 151.592C127.086 151.349 127.319 151.148 127.594 151.004C127.7 150.894 127.804 150.781 127.922 150.683C128.744 149.997 129.731 149.689 130.723 149.713C130.321 148 130.077 146.237 129.801 144.514C129.432 142.227 129.045 139.942 128.696 137.653C127.998 133.056 127.759 128.352 127.63 123.709C127.567 121.388 127.558 119.067 127.598 116.746C127.631 114.847 127.401 112.594 128.134 110.795C128.744 109.294 130.405 108.336 131.867 109.409C133.282 110.448 133.054 112.541 131.503 113.307C130.924 113.593 130.139 113.611 129.497 113.389C129.361 116.437 129.325 119.49 129.37 122.539C129.46 128.694 129.917 134.845 130.496 140.971C130.78 143.966 131.477 146.909 131.863 149.888C132.277 150.01 132.681 150.188 133.063 150.43C133.946 150.992 134.625 151.849 135.058 152.794C135.386 153.507 135.496 154.275 135.568 155.048C135.652 155.179 135.737 155.306 135.817 155.442C136.335 156.171 136.735 156.965 136.935 157.803C137.318 154.344 137.971 150.91 138.79 147.508C140.455 140.589 142.582 133.773 144.583 126.945C148.681 112.964 152.943 99.0175 158.025 85.3562C162.852 72.3787 168.43 59.6511 175.22 47.5712C181.644 36.1455 189.161 25.3094 197.973 15.5859C200.181 13.1498 202.477 10.7968 204.86 8.53105C207.26 6.24811 209.713 3.87195 212.424 1.95627C214.842 0.247545 217.88 -0.761519 220.652 0.712761C222.717 1.81085 224.152 3.924 224.607 6.1963C224.67 6.51376 224.7 6.82879 224.709 7.14232C227.171 11.4707 228.924 16.2232 230.302 20.9897C232.409 28.2736 233.855 35.7506 234.757 43.2762C236.562 58.3199 236.122 73.5991 233.636 88.5418C231.179 103.309 226.911 117.972 220.43 131.495C217.596 137.409 214.205 143.047 210.093 148.157C215.703 146.673 221.769 147.572 226.828 150.417C232.47 153.59 236.314 159.094 238.688 164.997C241.232 171.322 242.477 178.154 242.918 184.937C243.375 191.951 242.796 199.009 241.263 205.868C240.542 209.097 239.656 212.351 238.371 215.407C237.211 218.168 235.63 220.914 233.179 222.73C227.334 227.061 219.621 224.53 213.346 222.633C201.251 218.977 189.634 213.704 178.887 207.07C168.104 200.41 158.164 192.346 149.463 183.135C148.887 182.525 148.331 181.898 147.768 181.279C147.949 181.621 148.14 181.958 148.32 182.301C149.886 184.933 151.453 187.567 153.02 190.199L156.094 195.366L156.203 195.545L156.46 195.641C157.012 195.883 157.489 196.165 157.934 196.575C158.662 197.248 159.113 198.321 158.997 199.317C158.977 199.495 158.934 199.667 158.882 199.836C159.124 200.627 158.926 201.542 158.373 202.146C157.749 202.828 156.767 202.946 155.911 202.728C155.649 202.661 155.403 202.54 155.169 202.397L154.828 202.394C153.921 202.224 153.278 201.466 153.052 200.6C151.86 199.787 151.5 198.341 151.412 196.932C150.099 195.574 148.847 194.16 147.628 192.719C147.836 194.136 147.964 195.575 148.197 196.978C148.53 198.98 148.939 200.97 149.394 202.947C150.334 207.023 151.451 211.058 152.45 215.119C154.402 223.046 156.49 230.976 156.759 239.183C156.79 240.154 156.815 241.166 156.813 242.191C157.006 244.758 157.217 247.563 156.649 250.082C156.054 252.714 153.772 253.882 151.23 253.175C149.995 252.832 148.867 252.167 147.766 251.531C146.617 250.866 145.484 250.174 144.36 249.466C142.149 248.072 139.983 246.606 137.874 245.061C133.624 241.945 129.582 238.531 125.813 234.848C118.319 227.525 111.989 219.095 107.327 209.699C104.819 204.643 102.222 198.979 102.473 193.21C102.686 188.33 105.178 183.533 109.896 181.838C108.506 181.738 107.12 181.607 105.739 181.435C97.4586 180.408 89.4625 178.069 81.9374 174.608L81.8858 174.631C81.3102 174.74 80.7654 174.425 80.266 174.175C79.7112 173.897 79.177 173.591 78.6708 173.232C78.3797 173.024 78.0944 172.805 77.8124 172.578C76.265 171.761 74.7335 170.912 73.2337 169.998C63.2806 163.928 54.5801 156.025 46.46 147.724C37.7743 138.846 29.7695 129.324 22.4976 119.258C15.2515 109.228 8.71811 98.6889 2.96595 87.7339C1.7195 85.3521 0.13395 82.8249 0.00564458 80.0685ZM206.767 23.1816C206.698 22.8714 206.618 22.6842 206.377 22.4572L206.326 22.4345C206.176 22.5479 206.013 22.6123 205.848 22.6073C205.305 23.1516 204.773 23.7045 204.256 24.2638C202.481 26.1832 200.746 28.1417 199.011 30.0992C195.465 34.103 191.962 38.1468 188.464 42.1921C184.719 46.5221 180.955 50.8394 177.281 55.2289C175.572 57.2697 173.944 59.3737 172.442 61.5721C170.948 63.759 169.72 66.1011 168.231 68.2833L168.088 68.418C167.822 68.8322 167.566 69.2516 167.343 69.6963C166.624 71.1244 166.094 72.6488 165.594 74.163C164.532 77.3794 163.618 80.6468 162.746 83.9184C162.493 84.8644 162.245 85.812 161.995 86.7599L162.004 86.8918L162.028 87.1056L162.07 87.3627C162.099 87.5152 162.13 87.776 162.214 87.9251L162.246 88.0011L162.349 88.2113L162.447 88.379L162.45 88.3843L162.464 88.4018L162.692 88.6604L162.78 88.7244L162.945 88.8257L163.002 88.8483L163.148 88.8913L163.236 88.9022L163.457 88.9227L163.5 88.9314L163.543 88.9148L163.804 88.8496C163.624 88.8961 163.874 88.8175 163.903 88.8041L164.144 88.6769L164.283 88.5864L164.441 88.4593C164.577 88.3526 164.709 88.2456 164.835 88.1266C165.097 87.8807 165.336 87.6384 165.561 87.3583C165.667 87.2268 165.809 87.1417 165.961 87.1169C167.617 85.072 169.358 83.0962 171.239 81.2575C173.412 79.1312 175.751 77.1845 178.236 75.4335C180.325 73.9612 183.476 71.5067 186.069 73.2522C186.906 69.3574 188.209 65.5238 189.457 61.7586C190.959 57.2252 192.586 52.7394 194.339 48.2959C197.417 40.4933 200.715 32.602 205.625 25.7422C205.914 25.3386 206.233 24.956 206.534 24.5605C206.673 24.1847 206.798 23.7096 206.792 23.2857L206.767 23.1816ZM157.793 149.472C159.751 147.144 161.598 144.741 163.687 142.524C165.768 140.317 168.089 138.239 170.413 136.291C172.356 134.661 174.392 133.133 176.526 131.759C178.545 126.611 180.361 121.368 181.915 116.065C184.731 106.453 186.676 96.406 186.525 86.3628C182.807 89.8152 179.101 93.2768 176.04 97.3534C172.564 101.983 169.881 107.151 167.648 112.474C167.303 113.295 167.003 114.13 166.687 114.96C166.634 115.198 166.593 115.437 166.531 115.675C166.498 115.805 166.415 115.873 166.32 115.908C162.647 125.917 160.802 136.527 157.911 146.774C157.532 148.117 157.156 149.459 156.769 150.796C157.101 150.35 157.432 149.899 157.793 149.472ZM155.105 157.076C154.338 158.517 153.706 160.013 153.07 161.515C152.751 162.269 152.422 163.019 152.115 163.779C158.116 160.51 163.303 155.569 167.171 150.076C170.716 145.043 173.436 139.452 175.741 133.761C175.817 133.573 175.887 133.384 175.962 133.196C172.1 135.88 168.373 138.852 165.32 142.397C163.37 144.66 161.237 146.86 159.649 149.406C158.081 151.922 156.502 154.458 155.105 157.076ZM174.28 98.1856C177.76 93.4529 182.016 89.3248 186.496 85.5224C186.462 84.2858 186.414 83.0498 186.314 81.8143C186.207 81.5064 186.094 81.2011 185.975 80.8994C185.633 80.032 185.147 79.243 184.481 78.5848C183.76 77.8721 182.842 77.3698 181.867 77.0508C181.585 77.1002 181.317 77.1537 181.096 77.2052C180.109 77.4333 179.185 77.8126 178.308 78.3201L178.172 78.4122C177.023 79.3041 175.913 80.2466 174.837 81.2141C172.105 83.6691 169.639 86.3866 167.367 89.2595C167.549 90.8456 167.627 92.4579 167.813 94.0204C168.098 96.42 168.252 98.7925 168.22 101.209C168.187 103.671 167.804 106.042 167.571 108.485C167.51 109.124 167.45 109.761 167.385 110.396C169.259 106.1 171.5 101.966 174.28 98.1856ZM207.216 28.1599C206.613 28.9474 205.999 29.735 205.435 30.5525C204.883 31.3518 204.364 32.2486 203.607 32.8712L203.436 32.9396C202.852 33.9795 202.284 35.0291 201.747 36.0961C197.753 44.0378 194.652 52.4825 191.694 60.8527C190.829 63.3001 190.006 65.7602 189.173 68.2186L189.095 68.4561L189.095 68.4621C189.067 68.8656 189.001 69.287 188.909 69.6803C188.732 70.4379 188.571 71.1808 188.542 71.9615C188.498 73.1501 188.84 74.4595 189.654 75.3698C190.157 75.647 190.668 75.9079 191.275 76.0323C192.353 76.253 193.439 76.1696 194.497 75.9069C194.547 75.7731 194.627 75.6413 194.758 75.5225C197.57 72.9754 199.67 69.8173 201.353 66.4416C202.215 64.7114 202.956 62.9208 203.652 61.1173C204.378 59.2359 204.922 57.287 205.661 55.4126C206.872 52.3418 208.335 49.291 210.14 46.5031L210.133 46.3949C210.621 44.9063 210.877 43.3779 210.988 41.8327C210.905 41.4798 210.815 41.1284 210.748 40.7708C210.515 39.5341 210.381 38.2796 210.305 37.0245C210.21 35.47 210.206 33.9124 210.24 32.3552C210.056 31.3222 209.863 30.296 209.668 29.2906C209.449 28.1534 209.236 27.0279 209.05 25.9002C208.412 26.6267 207.809 27.3853 207.216 28.1599ZM226.286 31.2954C225.613 28.9862 224.894 26.6764 224.021 24.4348C223.53 23.1714 222.957 21.8749 222.175 20.7397C221.858 20.4365 221.494 20.1809 221.114 19.9529C218.078 19.7704 215.171 20.8823 212.7 22.6025C212.417 24.9666 212.211 27.3404 212.092 29.716C212.013 31.2819 212.003 32.8495 212.021 34.4172C212.169 35.7253 212.268 37.037 212.259 38.354C212.253 39.1259 212.228 39.895 212.177 40.6636C212.184 41.2472 212.18 41.8299 212.182 42.4134C212.184 42.8272 212.241 43.2555 212.229 43.6738C214.131 41.3499 216.332 39.3102 218.772 37.5365C221.187 35.7803 223.91 34.1751 226.792 33.1941C226.62 32.5618 226.468 31.9241 226.286 31.2954ZM228.364 42.8823C228.425 41.8213 228.425 40.7568 228.337 39.6921C227.94 37.7805 227.488 35.8824 227 33.9917C224.601 34.9883 222.276 36.0987 220.108 37.6035C217.042 39.7328 214.415 42.508 212.294 45.5696C210.047 48.8115 208.624 52.4098 207.246 56.078C206.553 57.9233 205.753 59.7267 205.059 61.5734C204.403 63.3178 203.727 65.0533 202.969 66.7561C201.814 69.3472 200.449 71.8553 198.724 74.0937C199.906 73.4281 201.124 72.8273 202.28 72.1144C206.841 69.3025 211.085 65.879 215.032 62.2697C217.281 60.2123 219.433 58.052 221.672 55.9814L221.745 55.9545C222.281 55.2756 222.817 54.5954 223.316 53.8882C224.675 51.9633 225.889 49.9215 226.842 47.7646C227.527 46.2064 228.036 44.5628 228.364 42.8823ZM229.068 77.4532C229.56 75.2363 229.754 72.9324 229.803 70.7083C229.857 68.3038 229.901 65.7495 229.604 63.2695C229.148 61.9561 228.543 60.6052 227.674 59.5348L227.459 59.3021C226.974 59.2716 226.486 59.2644 226.015 59.2635C224.976 59.2607 223.944 59.4311 222.952 59.7372C221.997 60.0316 221.076 60.4608 220.238 61.0032L220.099 61.1046C219.114 62.0811 218.121 63.0486 217.102 63.9893C211.86 68.8355 206.23 73.1963 200.162 76.9637C199.143 77.596 198.112 78.207 197.074 78.8073C194.94 80.6806 193.103 82.8471 191.735 85.3774C190.829 87.0534 190.133 88.8583 189.661 90.7034C189.507 91.309 189.388 91.9227 189.283 92.5391C189.377 92.62 189.451 92.7302 189.491 92.8696C189.746 93.7475 189.584 94.7979 189.5 95.6966C189.408 96.6801 189.298 97.6602 189.237 98.6463C189.115 100.617 189.096 102.609 189.25 104.578C189.367 106.076 189.597 107.786 191.465 107.677C192.305 107.627 193.081 107.311 193.868 107.045C194.352 106.882 194.829 106.762 195.311 106.683C197.976 105.125 200.622 103.53 203.219 101.862C208.385 98.5423 213.394 94.974 218.244 91.2043L218.248 91.1915C218.88 90.0255 219.941 89.2406 220.905 88.3613C221.862 87.4896 222.759 86.5634 223.633 85.6086C225.405 83.6683 227.025 81.5949 228.238 79.2549C228.542 78.666 228.818 78.0641 229.068 77.4532ZM223.837 105.644C225.192 104.069 226.468 102.432 227.784 100.826C228.109 100.309 228.415 99.7794 228.691 99.2267C228.808 98.9929 228.893 98.7491 228.997 98.5121C229.393 96.8268 229.772 95.1379 230.111 93.4407C230.163 93.1838 230.204 92.9255 230.252 92.6682C230.251 92.478 230.273 92.2902 230.265 92.0993C230.214 90.8858 229.978 89.681 229.598 88.5281C229.362 87.8087 229.016 87.1542 228.664 86.4998C228.501 86.4101 228.337 86.3228 228.168 86.2548C227.851 86.1287 227.58 86.0842 227.294 86.0572L227.133 86.2584C227.011 86.3995 226.878 86.4848 226.744 86.537C225.95 87.2612 225.147 87.9766 224.336 88.6818C221.355 91.2705 218.296 93.7787 215.152 96.168C208.941 100.888 202.463 105.283 195.726 109.219C194.904 109.701 194.077 110.174 193.248 110.646C192.503 111.239 191.788 111.894 191.043 112.487C190.149 113.199 189.29 113.959 188.488 114.773C186.944 116.34 185.596 118.113 184.482 120.009C184.156 120.565 183.857 121.137 183.576 121.716C183.407 122.253 183.235 122.788 183.092 123.331C182.688 124.862 182.414 126.416 182.255 127.99C182.119 129.335 181.87 131.606 183.622 131.979C183.888 132.035 184.054 132.17 184.17 132.333C184.877 132.249 185.584 132.093 186.247 131.908C189.454 131.012 192.546 129.747 195.508 128.232C201.539 125.148 207.003 121.041 212.112 116.622C213.546 115.381 214.933 114.089 216.356 112.837C217.047 112.229 217.713 111.583 218.418 110.994C218.815 110.662 219.248 110.362 219.675 110.059C219.914 109.207 220.945 108.423 221.519 107.877C222.292 107.14 223.073 106.414 223.825 105.656L223.837 105.644ZM215.874 134.725C219.278 128.461 221.963 121.826 224.268 115.089C224.534 114.314 224.774 113.531 225.027 112.751L225.022 112.48L224.999 112.198C224.964 112.104 224.944 112.006 224.934 111.881L224.881 111.623C224.791 111.423 224.613 111.303 224.406 111.243C223.824 111.075 223.25 111.373 222.757 111.696C222.17 112.08 221.612 112.518 221.082 112.975C220.498 113.478 219.964 114.058 219.329 114.499C219.155 114.62 218.947 114.733 218.736 114.775C216.536 116.885 214.251 118.903 211.868 120.808C204.882 126.39 197.188 131.046 189.015 134.672L188.695 134.806C185.858 136.576 182.914 138.194 180.034 139.881C177.842 141.164 175.639 142.556 173.914 144.413C172.756 146.085 171.633 147.781 170.599 149.535C170.175 150.254 169.786 150.988 169.413 151.727C169.201 152.449 168.878 153.143 168.757 153.888C168.638 154.621 168.674 155.479 168.952 156.121C169.449 157.271 170.724 158.365 172.043 158.149C172.292 158.108 172.475 158.205 172.586 158.354C173.187 158.418 173.79 158.448 174.386 158.45C177.465 158.457 180.567 157.783 183.539 157.039C190.305 155.344 196.852 152.668 203.222 149.86C204.434 149.325 205.697 148.722 206.84 147.969C210.323 143.9 213.317 139.427 215.874 134.725ZM213.392 149.62C211.943 149.651 210.501 149.828 209.083 150.127C208.851 150.175 208.666 150.133 208.516 150.047C204.305 154.907 199.345 159.054 193.929 162.511C194.81 162.263 195.7 162.045 196.599 161.872C198.795 161.449 201.021 161.212 203.246 160.995C203.384 160.976 203.522 160.948 203.66 160.929C207.985 160.362 212.423 159.781 216.681 158.657C216.81 158.611 216.942 158.579 217.07 158.531L217.135 158.504L217.319 158.307C219.009 157.343 220.676 156.312 222.266 155.187C223.397 154.387 224.444 153.478 225.531 152.624C221.879 150.534 217.639 149.527 213.392 149.62ZM229.549 155.593C229.044 155.108 228.512 154.659 227.964 154.234C226.278 155.762 224.078 156.913 222.072 157.816C221.707 157.981 221.337 158.133 220.969 158.291C219.933 158.784 218.864 159.206 217.769 159.544L217.713 159.551C216.604 159.931 215.482 160.274 214.33 160.545C211.581 161.192 208.79 161.635 205.995 162.035C202.915 162.476 199.815 162.705 196.752 163.25C195.054 163.552 193.364 163.923 191.701 164.379C191.023 164.564 190.363 164.787 189.708 165.022C184.75 167.762 179.525 169.975 174.153 171.798C176.01 171.892 177.862 172.114 179.673 172.527C179.917 172.584 180.157 172.656 180.401 172.718C180.849 172.8 181.297 172.877 181.742 172.974C182.719 173.188 183.686 173.456 184.641 173.761C185.942 173.649 187.309 173.762 188.584 173.71C190.391 173.636 192.195 173.517 193.995 173.349C197.438 173.03 200.891 172.617 204.3 172.037C205.7 171.715 207.1 171.396 208.502 171.079C212.058 170.273 215.614 169.468 219.173 168.669C220.465 168.379 221.764 168.07 223.065 167.772C223.792 167.573 224.524 167.381 225.248 167.177C227.17 166.632 229.089 166.077 231.006 165.518C232.516 165.078 234.011 164.605 235.544 164.28C234.056 161.06 232.124 158.062 229.549 155.593ZM240.352 185.766C240.096 180.929 239.377 176.12 238.117 171.452C238.006 171.044 237.879 170.637 237.759 170.229C236.585 169.66 235.531 168.976 234.228 168.633C232.739 168.242 231.171 168.157 229.64 168.235C226.003 168.418 222.394 169.479 218.852 170.262C218.542 170.33 218.231 170.397 217.922 170.465C217.458 170.582 216.995 170.706 216.531 170.821C212.443 171.817 208.311 172.724 204.156 173.472C201.877 173.969 199.596 174.463 197.319 174.968C195.491 175.375 193.635 175.89 191.772 176.105C191.337 176.155 190.859 176.188 190.389 176.169C193.553 177.851 196.454 180.02 198.872 182.653C198.965 182.755 199.051 182.865 199.137 182.973C211.076 181.126 223.584 181.899 235.348 184.516C237.014 184.887 238.714 185.246 240.342 185.763L240.352 185.766ZM236.318 204.107C238.28 199.897 239.587 195.333 240.152 190.729C240.181 190.492 240.186 190.251 240.212 190.013C239.268 189.682 238.341 189.279 237.412 188.931C236.124 188.448 234.828 187.987 233.515 187.578C233.043 187.43 232.561 187.317 232.085 187.181C230.661 186.884 229.234 186.599 227.802 186.345C224.177 185.698 220.536 185.15 216.898 184.577C214.323 184.424 211.741 184.386 209.168 184.453C206.43 184.524 203.706 184.818 200.988 185.131C201.532 185.649 202.08 186.164 202.662 186.639C203.525 186.65 204.398 186.994 205.182 187.379C206.4 187.976 207.596 188.618 208.783 189.274C211.168 190.59 213.505 191.987 215.836 193.394C220.466 196.193 225.07 199.119 229.945 201.481C232.021 202.483 234.177 203.273 236.318 204.107ZM212.609 216.351C213.639 216.484 214.669 216.592 215.702 216.666C220.208 216.991 224.984 216.552 228.801 213.915C230.138 212.992 231.304 211.861 232.341 210.613C231.878 209.917 231.458 209.179 230.945 208.524C230.174 207.541 229.317 206.625 228.409 205.766C226.521 203.979 224.398 202.475 222.24 201.031C217.838 198.084 213.404 195.074 208.706 192.613C207.382 191.921 206.031 191.287 204.65 190.718C203.699 190.327 202.651 190.05 201.671 189.672C201.424 189.928 201.117 190.161 200.746 190.36C197.412 192.156 193.549 193.305 189.848 194.031C189.291 194.14 188.729 194.214 188.169 194.3L188.532 194.496C189.489 195.007 190.428 195.546 191.327 196.151C193.111 197.354 194.818 198.678 196.404 200.132C197.774 201.387 199.052 202.745 200.268 204.158C200.603 204.457 200.949 204.742 201.281 205.045C205.209 208.643 209.051 212.381 212.609 216.351ZM190.767 209.773C195.686 212.014 200.889 213.918 206.217 215.177C203.993 211.102 201.261 207.217 197.988 203.954C196.077 202.049 194.031 200.285 191.846 198.699C190.795 197.937 189.71 197.222 188.62 196.517C187.756 195.96 186.464 195.447 185.785 194.598C179.595 195.191 173.262 194.459 167.367 192.528C165.421 191.892 163.517 191.099 161.668 190.198C170.463 197.992 180.036 204.882 190.767 209.773ZM156.639 176.453C156.828 177.111 157.04 177.765 157.304 178.397C157.866 179.743 158.547 181.04 159.336 182.267C160.103 183.461 160.979 184.586 161.941 185.629L161.959 185.648C162.954 186.728 163.947 187.844 165.075 188.787C165.197 188.889 165.259 189.013 165.294 189.139C171.585 191.75 178.255 192.809 185.058 192.297C187.033 192.148 189.001 191.859 190.946 191.459C192.618 190.656 193.912 189.247 194.698 187.592C194.835 187.205 194.941 186.809 195.047 186.412L195.072 186.086C195.073 185.886 195.036 185.675 195.009 185.466C194.935 185.45 194.866 185.411 194.818 185.331C193.708 183.508 192.779 181.704 191.276 180.146C189.802 178.622 187.996 177.419 186.114 176.451C181.971 174.319 177.036 173.824 172.444 173.814C171.088 173.811 169.737 173.852 168.382 173.905C167.973 173.92 167.565 173.929 167.157 173.94C163.677 174.9 160.163 175.731 156.638 176.449L156.639 176.453ZM151.702 172.121C152.84 172.386 154.016 172.526 155.168 172.63C157.274 172.821 159.398 172.814 161.516 172.68C161.652 172.662 161.788 172.643 161.923 172.621C170.433 170.568 178.759 167.791 186.542 163.77C191.968 160.967 197.065 157.554 201.581 153.45C197.439 155.765 193.092 157.691 188.614 159.334C182.045 161.744 175.263 163.569 168.361 164.727C166.472 165.044 164.574 165.322 162.669 165.517C161.473 165.64 160.258 165.775 159.046 165.859C158.532 165.965 158.016 166.059 157.503 166.168C156.504 166.382 155.5 166.576 154.497 166.773C153.646 167.116 152.74 167.525 152.007 168.081C151.418 168.528 150.851 169.051 150.43 169.662C150.256 169.915 150.108 170.185 149.987 170.467C150.295 171.202 150.966 171.743 151.702 172.121ZM145.095 164.442C146.2 164.886 147.426 165.073 148.647 165.029L148.716 164.818C151.379 159.315 153.567 153.628 155.464 147.819C157.382 141.953 158.832 135.926 160.55 129.998C162.089 124.685 163.819 119.419 165.8 114.252C165.881 112.3 166.094 110.364 166.187 108.408C166.301 105.978 166.151 103.533 166.205 101.097C166.213 100.724 166.23 100.35 166.241 99.9768C165.949 98.5459 165.654 97.1154 165.331 95.6923C165.115 94.7351 164.906 93.781 164.717 92.8166C164.308 93.403 163.881 93.9762 163.488 94.5725C160.056 99.7834 157.232 105.374 154.786 111.107C153.488 114.154 152.293 117.246 151.117 120.342C149.939 123.441 148.931 126.61 147.713 129.693C147.221 130.935 146.77 132.192 146.323 133.45C145.198 139.076 143.776 144.644 142.661 150.277C142.054 153.337 141.511 156.407 141.055 159.491C140.993 159.908 140.943 160.326 140.886 160.743C141.837 162.4 143.301 163.721 145.095 164.442ZM13.9469 80.6842C13.4827 80.784 13.032 80.929 12.6457 81.1985C12.293 81.4451 12.0129 81.8529 11.9449 82.2109C12.8184 83.1227 13.6772 84.0498 14.5437 84.968C15.3305 85.3038 16.1164 85.635 16.9094 85.9273C19.4614 86.8678 22.0618 87.6592 24.6592 88.4645C27.792 89.4364 30.9129 90.4313 34.0272 91.4457C33.6067 91.0314 33.2019 90.6005 32.772 90.193C31.8965 89.3611 30.9536 88.6124 29.9837 87.895C28.0167 86.4406 25.9304 85.0641 23.6496 84.1513C21.468 83.2784 19.289 82.3905 17.0651 81.6279C16.0361 81.2762 14.9942 80.9706 13.9469 80.6842ZM16.9769 87.4457C17.9571 88.4319 18.9304 89.4256 19.9324 90.3902C23.0372 93.378 26.236 96.26 29.5119 99.0589C29.9207 99.4083 30.341 99.7444 30.7536 100.089C32.7695 101.203 34.6181 102.667 36.506 103.969C38.5683 105.391 40.6115 106.84 42.6858 108.245C46.8839 111.088 51.2225 113.667 55.5593 116.288C56.4283 116.814 57.307 117.322 58.1838 117.833C60.4953 118.688 62.8778 119.359 65.3008 119.806C65.7431 119.888 66.1885 119.951 66.6334 120.018C67.2777 119.965 67.9219 119.922 68.5591 119.892C71.0728 119.775 73.5977 119.876 76.0951 120.183C76.51 120.233 76.9219 120.309 77.3344 120.371C76.3872 119.436 75.4646 118.476 74.5198 117.547C72.6149 115.675 70.7034 113.805 68.7294 112.008C64.7167 108.355 60.5509 104.869 55.9538 101.971C51.3244 99.0518 46.5411 96.6893 41.4059 94.7874C36.3403 92.9114 31.0418 91.7388 25.8514 90.2645C22.9176 89.4312 20.0102 88.5199 17.1352 87.5028L16.9769 87.4457ZM89.2981 120.986C87.6013 119.188 85.8657 117.428 84.0756 115.718C76.3957 108.382 67.9018 101.92 58.8014 96.4399C49.705 90.961 40.0308 86.4725 29.9691 83.0678C27.0288 82.0721 24.0543 81.179 21.0577 80.3678C20.92 80.505 20.7196 80.5871 20.4678 80.5323C19.7372 80.3721 19.0117 80.312 18.2842 80.2933C20.299 81.1086 22.2558 82.0785 24.0465 83.3099C26.0639 84.6966 28.1501 85.9841 30.1058 87.4589C31.0821 88.1943 32.0346 88.9649 32.9826 89.7365C33.8221 90.4198 34.6734 91.0522 35.3546 91.8891C36.9703 92.4215 38.5877 92.9451 40.1982 93.4979C45.2753 95.2438 50.1494 97.4529 54.713 100.291C59.1815 103.069 63.3873 106.401 67.3377 109.867C69.6265 111.875 71.8703 113.943 74.0556 116.062C75.5791 117.54 77.1609 119.008 78.6231 120.57C81.0537 121.013 83.4406 121.654 85.7735 122.463C86.2541 122.516 86.7359 122.558 87.2182 122.592C87.779 122.631 88.8791 122.783 89.2859 122.282C89.5912 121.906 89.5013 121.438 89.2981 120.986ZM109.666 144.858C109.216 144.455 108.798 144.007 108.372 143.599C107.632 142.893 106.884 142.196 106.148 141.485C104.641 140.028 103.174 138.528 101.709 137.029C100.283 135.567 98.8746 134.09 97.4519 132.627C96.7031 131.857 95.9635 131.078 95.2327 130.291C95.0974 130.146 94.9791 129.99 94.8502 129.841C87.4217 124.868 78.5434 122.265 69.5859 122.444C67.5271 122.485 65.5103 122.736 63.4865 123.015C63.3472 123.156 63.1475 123.225 62.9201 123.128L62.8612 123.101L62.8437 123.103C63.7294 125.617 64.9643 128.056 66.195 130.393C66.3532 130.694 66.534 130.982 66.6968 131.281C73.039 134.026 78.5371 138.289 84.2007 142.193C84.3446 142.134 84.5118 142.126 84.67 142.222C87.0613 143.665 89.4651 144.822 92.1152 145.725C94.6403 146.586 97.219 147.272 99.802 147.934C103.027 148.758 106.291 149.544 109.468 150.577C112.321 151.272 115.197 152.282 117.481 154.053C117.62 154.133 117.76 154.212 117.898 154.296C115.075 151.22 112.342 148.061 109.666 144.858ZM68.0461 133.665C68.8662 135.057 69.7236 136.426 70.6218 137.767C71.6131 138.156 72.583 138.708 73.5147 139.128C74.8615 139.732 76.251 140.249 77.6445 140.736C79.4204 141.357 81.2325 141.85 83.0436 142.349C80.5834 140.917 78.1132 139.505 75.6851 138.015C73.1894 136.485 70.6618 134.987 68.0461 133.665ZM120.507 157.063C119.752 156.527 119.014 155.968 118.231 155.472C117.179 154.808 116.091 154.201 114.97 153.656C112.62 152.513 110.155 151.603 107.657 150.842C107.183 150.697 106.702 150.576 106.226 150.439C102.504 149.717 98.7254 149.236 95.0732 148.193C91.9313 147.296 89.0944 145.861 86.2986 144.238C86.1144 144.15 85.9337 144.057 85.7513 143.967C82.8731 143.488 80.1065 142.587 77.3339 141.691C75.9293 141.237 74.5396 140.746 73.1412 140.276C72.8343 140.173 72.5107 140.071 72.1855 139.967C75.4358 144.449 79.1495 148.606 83.2584 152.314C89.0822 157.569 95.7001 161.847 102.802 165.104C103.952 165.285 105.073 165.726 106.178 166.072C107.402 166.456 108.634 166.817 109.873 167.151C112.422 167.839 114.999 168.389 117.613 168.767C120.193 169.14 122.798 169.358 125.405 169.378C126.575 169.386 128.072 169.29 129.26 168.779C129.401 168.704 129.544 168.633 129.688 168.564L129.92 168.417L130.038 168.208C130.266 167.861 130.556 167.598 130.868 167.374C130.939 167.239 131.025 167.117 131.074 166.964C127.335 163.889 123.849 160.547 120.507 157.063ZM136.591 160.754C136.493 160.943 136.376 161.111 136.244 161.274L136.063 161.493C136.243 161.766 136.425 162.04 136.605 162.313C136.625 161.718 136.649 161.125 136.689 160.533L136.591 160.754ZM145.81 190.781L145.863 190.603C143.726 187.917 141.766 185.098 139.958 182.184C139.543 182.256 139.132 182.346 138.73 182.462C135.997 183.486 134.171 186.152 133.507 188.917C132.673 192.394 133.137 196.175 133.668 199.663C134.181 203.034 134.899 206.512 136.179 209.695C136.508 210.378 136.849 211.058 137.217 211.724C137.975 213.095 138.819 214.422 139.736 215.694C140.456 216.546 141.307 217.327 142.367 217.664C144.039 218.195 145.633 217.136 146.5 215.747C146.59 215.604 146.661 215.455 146.736 215.308C146.955 214.687 147.169 214.067 147.367 213.44C147.576 212.501 147.707 211.535 147.974 210.609C146.691 205.427 145.716 200.191 145.632 194.856C145.61 193.485 145.658 192.142 145.81 190.781ZM149.158 247.763C149.752 248.685 150.671 249.296 151.291 250.194L151.303 250.236C152.023 250.489 152.86 250.523 153.57 250.311C154.547 248.484 155.008 246.495 155.2 244.46C155.187 243.895 155.171 243.329 155.14 242.764C154.841 237.341 153.704 231.992 152.364 226.741C151.332 222.705 150.127 218.661 149.018 214.591C148.736 215.517 148.323 216.398 147.775 217.156C147.32 218.479 146.686 219.786 145.548 220.618C145.242 220.841 144.939 220.994 144.64 221.098C145.093 221.913 145.416 222.852 145.697 223.679C146.163 225.051 146.511 226.47 146.805 227.887C147.367 230.585 147.668 233.339 147.713 236.094L147.714 236.101C147.904 237.648 148.059 239.2 148.141 240.757C148.204 241.98 148.227 243.204 148.212 244.429C148.207 244.821 148.221 245.283 148.214 245.748C148.448 246.455 148.752 247.137 149.158 247.763ZM140.124 243.619C140.89 243.994 141.696 244.319 142.518 244.405C142.635 244.417 142.763 244.419 142.896 244.415C144.407 243.572 145.177 241.803 145.409 240.112C145.72 237.84 145.559 235.437 145.335 233.165C144.927 229.027 143.847 225.081 142.729 221.11C141.894 220.836 141.113 220.231 140.399 219.496C138.614 221.189 137.168 223.101 136.085 225.245C135.975 225.453 135.872 225.668 135.758 225.872C135.406 226.636 135.094 227.425 134.838 228.249C133.778 231.676 133.567 235.329 134.286 238.844C134.312 238.968 134.3 239.075 134.275 239.176C136.23 240.654 138.161 242.157 140.124 243.619ZM124.826 228.027C125.248 228.58 125.773 229.038 126.268 229.519C126.862 229.636 127.471 229.679 128.067 229.607C129.431 229.443 130.801 228.838 131.887 227.926C132.634 226.979 133.345 226.001 133.971 224.946C134.322 224.353 134.632 223.745 134.932 223.133L134.955 222.94C135.553 221.179 135.897 219.315 135.982 217.456C136.055 215.834 135.897 214.092 135.573 212.474C134.921 211.286 134.32 210.064 133.776 208.815C132.044 211.963 129.41 214.501 126.403 216.481C126.156 216.645 125.899 216.792 125.645 216.946C125.199 217.256 124.743 217.547 124.269 217.8L124.217 218.034L124.211 218.046L124.173 218.373L124.081 218.553L124.086 218.556L124.056 218.601C123.905 218.914 123.731 219.215 123.57 219.522C122.97 221.245 122.835 223.103 123.307 224.891C123.605 226.009 124.124 227.105 124.826 228.027ZM113.372 205.331L113.305 205.489C113.17 205.815 113.06 206.152 112.988 206.492C112.797 207.39 112.846 208.344 112.975 209.248C113.12 210.262 113.474 211.233 113.628 212.239L113.623 212.34C113.816 212.793 114.015 213.243 114.216 213.691C114.745 214.357 115.344 214.966 116.035 215.457C117.694 216.635 119.941 217.219 121.985 216.828C122.244 216.719 122.505 216.613 122.759 216.493C123.871 215.89 124.965 215.282 125.954 214.469C127.159 213.478 128.244 212.367 129.151 211.095C130.603 209.058 131.582 206.721 132.122 204.283C131.808 203.254 131.529 202.217 131.299 201.17C130.743 201.053 130.151 201.065 129.596 201.144C128.544 201.293 127.496 201.503 126.451 201.69C125.331 201.89 124.214 202.109 123.095 202.314C122.56 202.412 122.02 202.532 121.478 202.639C119.33 203.153 117.115 203.463 114.919 203.421L114.903 203.419C114.235 203.9 113.716 204.574 113.372 205.331ZM111.129 189.499C111.08 192.458 112.108 195.318 114.302 197.406C116.319 199.325 119.036 200.195 121.758 200.51C122.234 200.389 122.707 200.267 123.174 200.127C124.446 199.745 125.699 199.286 126.922 198.768C128.029 198.299 129.259 197.485 130.447 197.299L130.639 197.302C130.522 196.266 130.447 195.229 130.426 194.192C130.381 192.028 130.381 189.873 130.567 187.713C130.631 186.959 130.73 186.206 130.827 185.454C129.861 184.99 128.9 184.509 127.88 184.162C126.491 183.689 125.079 183.509 123.616 183.491C123.395 183.488 123.224 183.4 123.091 183.275C122.971 183.284 122.85 183.297 122.729 183.307C121.244 183.447 119.774 183.69 118.356 184.084C116.381 184.633 114.485 185.55 112.997 186.979C112.238 187.709 111.638 188.578 111.129 189.499ZM97.7224 177.947C108.742 180.583 120.223 180.608 131.334 178.53C133.254 178.171 135.159 177.736 137.056 177.263C136.531 176.285 136.035 175.29 135.547 174.291C135.39 174.394 135.208 174.47 134.977 174.47C131.291 174.448 127.639 174.075 124.022 173.462C121.487 173.872 118.93 174.151 116.372 174.379C112.496 174.726 108.645 174.799 104.756 174.733C100.983 174.667 97.2055 174.413 93.4606 173.941C89.9228 173.496 86.3367 172.945 82.8749 172.085C82.035 171.876 81.1981 171.654 80.3658 171.419C85.8618 174.248 91.643 176.492 97.7224 177.947ZM76.8377 168.475L77.0853 168.577C78.6932 169.184 80.3096 169.786 81.9385 170.335C85.3475 171.485 88.8161 172.46 92.364 173.068C99.7989 174.341 107.256 174.408 114.762 173.812C117.023 173.632 119.27 173.344 121.513 173.029C119.989 172.767 118.469 172.479 116.962 172.127C112.613 171.113 108.383 169.683 104.274 167.949C99.2623 167.269 94.2608 166.631 89.2087 166.291C86.4497 166.106 83.6869 166.008 80.9218 165.945C79.669 165.917 78.299 165.755 77.0678 166.042C76.8027 166.103 76.4833 166.253 76.199 166.454C76.2838 167.148 76.5205 167.837 76.8377 168.475ZM56.2648 152.058C56.6578 152.795 57.1565 153.481 57.6463 154.058C58.4747 155.034 59.388 155.946 60.323 156.83C60.9064 157.183 61.339 157.648 61.8234 158.157C62.0064 158.349 62.2175 158.51 62.4103 158.692C63.454 159.572 64.5389 160.408 65.6632 161.192C66.1993 161.517 66.7418 161.833 67.3121 162.099C68.6756 162.735 70.1331 163.206 71.613 163.48C71.8958 163.533 72.182 163.568 72.4672 163.605L72.5242 163.584C73.8047 163.119 75.1421 162.926 76.4979 162.835C79.2484 162.648 82.0052 163.034 84.7227 163.405C86.0235 163.582 87.3237 163.761 88.6236 163.94L88.8365 163.932C89.7927 163.866 90.8127 163.799 91.7391 163.535C92.3156 163.37 93.3827 162.456 92.6164 161.876C89.66 160.008 86.8255 157.953 84.1313 155.727C83.9721 155.633 83.7991 155.563 83.6381 155.472C83.5491 155.623 83.3534 155.721 83.1493 155.619C80.1103 154.103 76.9291 152.887 73.6491 152.036L73.5301 152.048C72.9342 151.887 72.331 151.735 71.7268 151.585C70.8459 151.398 69.9592 151.23 69.0654 151.1C64.7171 150.471 60.3952 150.689 56.0694 151.227C56.1135 151.463 56.1725 151.69 56.2511 151.918L56.2648 152.058ZM41.54 135.457C41.8088 136.055 42.1059 136.639 42.4287 137.208C43.099 138.388 43.8813 139.507 44.7579 140.543C45.6132 141.554 46.5607 142.496 47.5965 143.322C48.4908 144.035 49.4373 144.723 50.405 145.347C50.7008 145.365 50.9956 145.418 51.2656 145.523C51.4405 145.59 51.6075 145.67 51.7658 145.766C52.0116 145.821 52.2515 145.904 52.4985 145.947C53.215 146.071 53.9384 146.137 54.6631 146.182C55.0845 146.207 55.489 146.216 55.8908 146.256C56.1319 146.244 56.3729 146.233 56.6144 146.234C59.375 146.249 62.09 147.041 64.7525 147.68C67.6557 148.378 70.557 149.09 73.4543 149.811C75.3803 150.29 77.2988 150.756 79.1899 151.319C76.0486 148.247 73.146 144.93 70.5488 141.383C70.0355 140.681 69.5473 139.961 69.0559 139.243C67.2713 137.79 65.1745 136.503 63.1218 135.591C62.0887 135.132 61.0195 134.757 59.934 134.439C59.3934 134.293 58.8511 134.155 58.3087 134.023C57.3696 133.813 56.4237 133.638 55.4676 133.538C55.2838 133.519 55.1502 133.437 55.0535 133.331C54.1911 133.174 53.3271 133.032 52.4595 132.923C50.026 132.622 47.5696 132.514 45.1292 132.802C44.0866 132.925 42.8183 132.953 41.8852 133.48C41.4482 133.727 41.2177 134.091 41.1083 134.503C41.2728 134.81 41.3997 135.144 41.54 135.457ZM25.3808 114.345C26.1251 115.444 26.9061 116.529 27.7227 117.589C29.8788 120.19 32.2235 122.616 34.8352 124.722C35.7242 125.439 36.6537 126.098 37.6076 126.714C38.4251 127.13 39.2504 127.532 40.1056 127.883C42.3233 128.794 44.6204 129.494 46.9477 130.066C48.4842 130.085 50.0207 130.137 51.5504 130.28C54.3072 130.538 57.0443 130.977 59.7328 131.636C60.4077 131.801 61.0764 132.009 61.7457 132.209L61.9774 132.194C62.6727 132.081 63.6759 131.505 63.9888 130.771C63.4543 129.711 62.953 128.637 62.4584 127.561L62.2839 127.474C60.3751 125.223 58.3799 123.002 56.2808 120.923C55.8534 120.5 55.393 120.112 54.9508 119.704C54.2689 119.534 53.5861 119.366 52.8693 119.308C51.564 119.199 50.2509 119.243 48.9437 119.169C46.2271 119.019 43.5708 118.28 41.0325 117.337C39.6789 116.834 38.3558 116.261 37.0565 115.637C36.6674 115.649 36.279 115.654 35.8883 115.615C35.0257 115.53 34.1699 115.364 33.3183 115.207C31.6605 114.902 30.0281 114.493 28.3997 114.068C26.9859 113.698 25.6043 113.184 24.2514 112.623C24.6271 113.198 24.9956 113.777 25.3808 114.345ZM22.9823 110.692C23.2496 110.84 23.5157 110.988 23.7836 111.116C25.346 111.864 26.9589 112.466 28.5908 113.04C30.1859 113.6 31.8377 113.988 33.5074 114.253C33.9196 114.319 34.3322 114.37 34.7464 114.417C34.3957 114.224 34.0292 114.058 33.6825 113.855C30.9138 112.23 28.0856 110.729 25.2112 109.299C23.6443 108.52 22.0957 107.697 20.5635 106.85C21.3626 108.135 22.1661 109.417 22.9823 110.692ZM13.3524 92.9635C14.5264 95.8934 15.8324 98.7704 17.2804 101.574C17.7451 102.314 18.206 103.058 18.6666 103.801C19.215 104.071 19.7507 104.367 20.2859 104.666C21.7507 105.485 23.2007 106.326 24.6482 107.177C27.4805 108.84 30.2355 110.619 33.1263 112.185C34.8605 113.124 36.6165 114.091 38.4126 114.965L38.5252 114.984L38.745 115.13C41.9099 116.643 45.2051 117.834 48.7453 118.008C50.1833 118.078 51.6259 117.987 53.0613 118.112L53.2029 118.126C53.0149 117.987 52.8261 117.851 52.6381 117.713C52.1726 117.441 51.7034 117.174 51.2418 116.898C49.0804 115.603 46.9563 114.246 44.852 112.859C43.5568 112.198 42.2488 111.523 41.1394 110.619C41.0078 110.513 40.9799 110.373 40.9936 110.242C40.6853 110.028 40.3677 109.826 40.0603 109.61C32.869 104.547 25.9619 99.0509 19.5611 93.0168C18.6541 92.1616 17.7804 91.2715 16.8913 90.3991L16.6241 90.2851C16.0173 89.674 15.3489 89.1174 14.701 88.5502C14.1139 88.0349 13.4855 87.596 12.7717 87.2744C12.4241 87.1176 12.1433 87.0739 11.7781 87.0522L11.5532 87.0494L11.4369 87.0687L11.2435 87.1167L11.2314 87.1218C11.8681 89.0895 12.5808 91.0407 13.3524 92.9635Z" fill="#E8B5BC"/>
</svg>
